<?xml version="1.0" encoding="UTF-8"?>
<svg id="Layer_1" data-name="Layer 1" xmlns="http://www.w3.org/2000/svg" width="1571" height="475.5" viewBox="0 0 1571 475.5">
  <defs>
    <style>
      .cls-1 {
        fill: #00bfdd;
      }

      .cls-1, .cls-2, .cls-3, .cls-4, .cls-5, .cls-6, .cls-7, .cls-8, .cls-9 {
        stroke-width: 0px;
      }

      .cls-2 {
        fill: #ffd200;
      }

      .cls-3 {
        fill: #02955f;
      }

      .cls-4 {
        fill: #006394;
      }

      .cls-5 {
        fill: #fcb53c;
      }

      .cls-6 {
        fill: #a5d061;
      }

      .cls-10 {
        fill: none;
        stroke: #c4c4c4;
        stroke-miterlimit: 10;
        stroke-width: 3.85px;
      }

      .cls-7 {
        fill: #abe8e9;
      }

      .cls-8 {
        fill: #f47d4b;
      }

      .cls-9 {
        fill: #98989a;
      }
    </style>
  </defs>
  <g>
    <g>
      <path class="cls-4" d="M78.37,435.05c-12.57,0-22.12-2.68-30.27-10.94l10.48-10.48c5.24,5.24,12.34,6.98,19.91,6.98,9.66,0,14.78-3.72,14.78-10.36,0-2.79-.81-5.12-2.56-6.87-1.63-1.51-3.26-2.21-7.45-2.79l-9.89-1.51c-7.33-1.05-12.34-3.26-16.07-6.87-3.96-3.84-5.94-9.31-5.94-16.3,0-14.78,10.94-25.14,28.87-25.14,11.41,0,19.67,2.79,26.77,9.66l-10.24,10.13c-5.12-5.01-11.53-5.7-17-5.7-8.61,0-12.69,4.77-12.69,10.48,0,2.21.58,4.31,2.33,5.94,1.63,1.51,4.07,2.68,7.57,3.14l9.9,1.51c7.57,1.05,12.22,3.03,15.83,6.52,4.42,4.07,6.4,10.01,6.4,17.46,0,16.06-13.27,25.14-30.73,25.14Z"/>
      <path class="cls-4" d="M124.35,434.35v-82.89h54.6v14.43h-38.42v19.44h32.71v14.43h-32.71v20.14h38.42v14.43h-54.6Z"/>
      <path class="cls-4" d="M253.67,434.35v-48.31l-15.83,31.43h-10.94l-15.95-31.43v48.31h-16.18v-82.89h15.95l21.65,44.82,21.54-44.82h15.95v82.89h-16.18Z"/>
      <path class="cls-4" d="M289.17,434.35v-82.89h16.18v82.89h-16.18Z"/>
    </g>
    <g>
      <polygon class="cls-9" points="727.89 95.8 775.1 95.8 775.1 106.88 741.09 106.88 741.09 129.25 768.17 129.25 768.17 140.22 741.09 140.22 741.09 164.39 775.22 164.39 775.22 175.58 727.89 175.58 727.89 95.8 727.89 95.8"/>
      <polygon class="cls-9" points="788.87 95.8 805.88 95.8 821.99 133.84 822.33 133.84 838.44 95.8 854.22 95.8 854.22 175.58 842.47 175.58 842.47 113.26 842.24 113.26 826.02 152.31 817.18 152.31 800.84 113.37 800.51 113.37 800.51 175.58 788.87 175.58 788.87 95.8 788.87 95.8"/>
      <polygon class="cls-9" points="870.33 95.8 883.54 95.8 883.54 175.58 870.33 175.58 870.33 95.8 870.33 95.8"/>
      <path class="cls-9" d="M895.17,167.63l6.71-9.4c5.48,4.03,11.19,7.61,21.59,7.61,7.5,0,13.09-4.48,13.09-10.74,0-6.94-5.26-10.18-11.3-12.64l-11.19-4.48c-10.07-4.03-15.1-11.3-15.1-21.04,0-12.31,9.4-22.49,25.17-22.49,8.73,0,16.56,2.13,23.05,7.61l-6.83,9.4c-5.93-4.25-10.52-6.49-16.9-6.49-7.05,0-12.2,3.36-12.2,10.18,0,5.48,3.36,8.61,10.18,11.52l10.51,4.48c11.3,4.81,17.68,11.86,17.68,21.71,0,14.88-12.42,24.06-27.3,24.06-10.18,0-19.8-2.57-27.19-9.29"/>
      <path class="cls-9" d="M956.94,167.63l6.71-9.4c5.48,4.03,11.19,7.61,21.59,7.61,7.5,0,13.09-4.48,13.09-10.74,0-6.94-5.26-10.18-11.3-12.64l-11.19-4.48c-10.07-4.03-15.1-11.3-15.1-21.04,0-12.31,9.4-22.49,25.17-22.49,8.73,0,16.56,2.13,23.05,7.61l-6.83,9.4c-5.93-4.25-10.52-6.49-16.89-6.49-7.05,0-12.2,3.36-12.2,10.18,0,5.48,3.36,8.61,10.18,11.52l10.52,4.48c11.3,4.81,17.68,11.86,17.68,21.71,0,14.88-12.42,24.06-27.3,24.06-10.18,0-19.8-2.57-27.19-9.29"/>
      <polygon class="cls-9" points="1024.3 95.8 1037.51 95.8 1037.51 175.58 1024.3 175.58 1024.3 95.8 1024.3 95.8"/>
      <path class="cls-9" d="M1051.72,151.52v-30.88c0-17.12,12.2-26.3,27.97-26.3s28.2,7.61,28.2,25.4v30.88c0,17.79-12.65,26.3-28.09,26.3s-28.08-7.5-28.08-25.4M1094.57,151.07v-31.55c0-8.95-5.93-14.21-15.1-14.21s-14.54,6.15-14.54,15.22v30.55c0,9.06,5.37,14.77,14.99,14.77s14.66-6.04,14.66-14.77"/>
      <polygon class="cls-9" points="1121.99 95.8 1135.08 95.8 1165.29 149.17 1165.51 149.17 1165.51 95.8 1177.26 95.8 1177.26 175.58 1166.07 175.58 1133.96 118.4 1133.74 118.4 1133.74 175.58 1121.99 175.58 1121.99 95.8 1121.99 95.8"/>
      <path class="cls-9" d="M1188.68,167.63l6.71-9.4c5.48,4.03,11.19,7.61,21.6,7.61,7.5,0,13.09-4.48,13.09-10.74,0-6.94-5.26-10.18-11.3-12.64l-11.19-4.48c-10.07-4.03-15.1-11.3-15.1-21.04,0-12.31,9.4-22.49,25.17-22.49,8.73,0,16.56,2.13,23.05,7.61l-6.83,9.4c-5.93-4.25-10.52-6.49-16.89-6.49-7.05,0-12.2,3.36-12.2,10.18,0,5.48,3.36,8.61,10.18,11.52l10.52,4.48c11.3,4.81,17.68,11.86,17.68,21.71,0,14.88-12.42,24.06-27.3,24.06-10.18,0-19.8-2.57-27.19-9.29"/>
      <path class="cls-9" d="M694.99,214.28h27.41c16.45,0,24.84,9.51,24.84,23.5,0,11.19-5.15,19.92-15.78,22.49l18.13,33.79h-14.21l-16.34-31.55h-10.85v31.55h-13.2v-79.78h0ZM720.17,252.32c9.29,0,14.1-4.47,14.1-13.87,0-8.28-4.14-13.65-13.54-13.65h-12.53v27.52h11.97Z"/>
      <polygon class="cls-9" points="762.24 214.28 809.46 214.28 809.46 225.36 775.44 225.36 775.44 247.73 802.52 247.73 802.52 258.7 775.44 258.7 775.44 282.87 809.57 282.87 809.57 294.06 762.24 294.06 762.24 214.28 762.24 214.28"/>
      <path class="cls-9" d="M823.22,214.28h27.97c14.77,0,25.96,7.16,25.96,22.83v32.78c0,16.34-11.08,24.17-25.96,24.17h-27.97v-79.78h0ZM849.74,283.32c10.07,0,14.1-7.27,14.1-13.76v-30.88c0-7.72-4.47-13.65-14.1-13.65h-13.31v58.3h13.31Z"/>
      <path class="cls-9" d="M890.59,270.45v-56.17h13.2v55.17c0,11.19,7.05,15.22,14.77,15.22,8.84,0,14.66-5.71,14.32-14.88v-55.5h12.64v55.72c.11,16.44-12.09,25.4-27.75,25.4s-27.19-7.27-27.19-24.95"/>
      <path class="cls-9" d="M959.29,270.67v-33.12c0-15.55,12.2-24.62,27.86-24.62,14.55,0,25.85,8.28,25.85,21.93v5.26h-11.75v-3.69c0-7.49-5.15-12.76-14.21-12.76s-14.54,5.71-14.54,14.32v31.78c0,10.18,5.93,14.77,14.88,14.77s13.87-4.92,13.87-12.2v-4.25h11.75v5.15c0,14.1-11.3,22.16-25.73,22.16-15.44,0-27.97-7.72-27.97-24.73"/>
      <polygon class="cls-9" points="1041.65 225.02 1019.83 225.02 1019.83 214.28 1076.44 214.28 1076.44 225.02 1054.85 225.02 1054.85 294.06 1041.65 294.06 1041.65 225.02 1041.65 225.02"/>
      <polygon class="cls-9" points="1087.19 214.28 1100.39 214.28 1100.39 294.06 1087.19 294.06 1087.19 214.28 1087.19 214.28"/>
      <path class="cls-9" d="M1114.6,270v-30.88c0-17.12,12.19-26.3,27.97-26.3s28.2,7.61,28.2,25.4v30.88c0,17.79-12.64,26.3-28.09,26.3s-28.08-7.5-28.08-25.4M1157.45,269.55v-31.55c0-8.95-5.93-14.21-15.1-14.21s-14.54,6.15-14.54,15.22v30.55c0,9.06,5.37,14.77,14.99,14.77s14.66-6.04,14.66-14.77"/>
      <polygon class="cls-9" points="1184.87 214.28 1197.96 214.28 1228.17 267.65 1228.4 267.65 1228.4 214.28 1240.15 214.28 1240.15 294.06 1228.96 294.06 1196.84 236.88 1196.62 236.88 1196.62 294.06 1184.87 294.06 1184.87 214.28 1184.87 214.28"/>
      <path class="cls-9" d="M830.61,332.54h15.67l23.49,80h-13.2l-5.93-21.37h-25.62l-5.93,21.37h-12.19l23.72-80h0ZM847.72,380.98l-9.73-35.36h-.22l-9.96,35.36h19.91Z"/>
      <polygon class="cls-9" points="880.29 332.76 893.49 332.76 893.49 401.35 927.62 401.35 927.62 412.54 880.29 412.54 880.29 332.76 880.29 332.76"/>
      <path class="cls-9" d="M940.04,332.76h30.66c13.09,0,20.7,7.61,20.7,19.69,0,9.29-5.48,17.23-13.76,19.02v.22c9.51,1.79,14.88,9.84,14.88,19.02,0,14.1-9.06,21.82-21.48,21.82h-31v-79.78h0ZM965.44,366.66c6.94,0,12.87-3.8,12.87-12.42,0-7.72-4.92-11.3-11.64-11.3h-13.54v23.72h12.31ZM967.01,402.13c7.27,0,12.08-4.37,12.08-12.98s-5.93-11.86-13.2-11.86h-12.76v24.84h13.87Z"/>
      <polygon class="cls-9" points="1006.28 332.76 1053.5 332.76 1053.5 343.84 1019.49 343.84 1019.49 366.21 1046.57 366.21 1046.57 377.18 1019.49 377.18 1019.49 401.35 1053.61 401.35 1053.61 412.54 1006.28 412.54 1006.28 332.76 1006.28 332.76"/>
      <path class="cls-9" d="M1067.27,332.76h27.41c16.45,0,24.84,9.51,24.84,23.5,0,11.18-5.15,19.91-15.78,22.49l18.13,33.79h-14.21l-16.34-31.56h-10.86v31.56h-13.2v-79.78h0ZM1092.44,370.8c9.29,0,14.1-4.47,14.1-13.87,0-8.28-4.14-13.65-13.54-13.65h-12.53v27.52h11.97Z"/>
      <polygon class="cls-9" points="1149.29 343.5 1127.47 343.5 1127.47 332.76 1184.09 332.76 1184.09 343.5 1162.49 343.5 1162.49 412.54 1149.29 412.54 1149.29 343.5 1149.29 343.5"/>
      <path class="cls-9" d="M1206.36,332.54h15.66l23.5,80h-13.2l-5.93-21.37h-25.62l-5.93,21.37h-12.2l23.72-80h0ZM1223.47,380.98l-9.73-35.36h-.23l-9.96,35.36h19.91Z"/>
      <polygon class="cls-6" points="1405.64 254.21 1470.42 333.41 1535.21 254.21 1405.64 254.21 1405.64 254.21"/>
      <polygon class="cls-3" points="1405.64 254.21 1535.21 254.21 1470.42 175 1405.64 254.21 1405.64 254.21"/>
      <polygon class="cls-2" points="1340.85 175 1405.64 254.21 1470.43 175 1340.85 175 1340.85 175"/>
      <polygon class="cls-8" points="1276.07 95.8 1340.85 175 1405.64 95.8 1276.07 95.8 1276.07 95.8"/>
      <polygon class="cls-5" points="1405.64 95.8 1340.85 175 1470.42 175 1405.64 95.8 1405.64 95.8"/>
      <polygon class="cls-1" points="1340.85 333.41 1405.64 412.61 1470.43 333.41 1340.85 333.41 1340.85 333.41"/>
      <polygon class="cls-7" points="1470.43 333.41 1405.64 254.21 1340.85 333.41 1470.43 333.41 1470.43 333.41"/>
      <polygon class="cls-4" points="1276.07 412.62 1405.64 412.62 1340.85 333.41 1276.07 412.62 1276.07 412.62"/>
    </g>
    <line class="cls-10" x1="521.33" y1="67.28" x2="521.33" y2="422.28"/>
  </g>
  <g>
    <path class="cls-3" d="M208.59,141.93c0,7.97-4.46,14.89-11.03,18.39h0c-2.92,1.58-6.27,2.46-9.81,2.46s-6.7-.84-9.57-2.33c-6.7-3.46-11.28-10.45-11.28-18.52,0-11.51,9.34-20.85,20.85-20.85s20.85,9.34,20.85,20.85Z"/>
    <path class="cls-3" d="M220.29,246.45s-1.96,2.49-5.53,5.5c-1.96,1.66-4.42,3.48-7.31,5.12-5.2,2.98-11.83,5.42-19.53,5.42-8.67,0-15.98-3.09-21.45-6.57-2.5-1.59-4.6-3.24-6.28-4.72-3.03-2.66-4.67-4.75-4.67-4.75,0,0-.37-16.85,2.93-34.52,3.62-19.42,11.66-39.81,29.47-39.81s25.75,18.11,29.44,36.45h0c3.8,18.82,2.93,37.88,2.93,37.88Z"/>
    <circle class="cls-4" cx="135.68" cy="164.79" r="17.65"/>
    <circle class="cls-6" cx="238.55" cy="164.79" r="17.65"/>
    <g>
      <path class="cls-4" d="M109.03,247.73c1.31,1.83,2.69,3.64,4.15,5.38-2.68-2.31-4.14-4.16-4.14-4.16,0,0,0-.43,0-1.22Z"/>
      <path class="cls-4" d="M142.44,246.73l.02.86c-7.93-6.22-14.63-13.94-19.67-22.73,0,0,0-.02,0-.02-5.45-7.33-7.48-14.3-8.08-16.91.16-.47.33-.94.5-1.4h0c2.22-5.96,5.23-11.2,9.32-14.61.02,0,.04-.02.05-.04.79-.66,1.62-1.25,2.5-1.76l8.86,11.1,8.54-11.18c.97.53,1.89,1.15,2.76,1.85,0,0,.03,0,.04.02.78.63,1.53,1.33,2.24,2.09-7.41,22.6-7.15,48.74-7.07,52.71Z"/>
    </g>
    <path class="cls-6" d="M262.42,216.39c-6.11,14.53-16.52,26.83-29.62,35.32l.37-.46.19-4.2c.18-4.05,1.08-31.38-6.74-54.43,1.04-.95,2.15-1.78,3.33-2.47l8.86,11.1,8.54-11.18c8.2,4.47,12.66,15.22,15.07,26.32Z"/>
    <path class="cls-4" d="M293.85,84.89l-9.4-9.4-30.33,15.42c-8.61-5.8-17.8-10.37-27.33-13.71l-3.81-33.14-26.42-3.6-13.64,30.1c-10.04.35-20.05,1.93-29.78,4.79l-24.04-25.48-22.82,12.82,6.17,33.75c-3.59,2.85-7.07,5.94-10.39,9.26-3.73,3.73-7.17,7.66-10.3,11.73l-33.32-6.89-12.21,23.42,24.9,24.91c-2.37,8.68-3.75,17.57-4.14,26.5l-31.17,15.85,3.4,27.03,35.13,4.27c3.23,8.69,7.49,17.08,12.78,24.99l-16.08,31.81,9.21,9.21,38.35-38.35.54-.54c-2.09-2.09-4.06-4.24-5.9-6.46,0-.02-.03-.03-.04-.04-1.46-1.75-2.84-3.56-4.15-5.38-26.76-37.24-23.39-89.44,10.1-122.93,37.23-37.23,97.59-37.23,134.81,0"/>
    <path class="cls-6" d="M339.21,212.63h0c-9.45,39.9-46.76,30.68-51.27,29.4-5.38,10.77-12.49,20.69-21.18,29.38-17.54,17.54-39.76,28.59-64.27,31.96-5.06.7-10.17,1.04-15.28,1.04-3.88,0-7.74-.21-11.59-.61,5.84,8.55,4.19,19.55,4.19,19.55-19.16-3.25-23.03-15.65-23.55-23.23-7.98-2.25-15.69-5.36-22.98-9.31l4.46-8.21c19.18,10.42,41.73,14.51,63.47,11.51,22.48-3.09,42.85-13.23,58.94-29.31,7.2-7.2,13.23-15.29,17.94-24.07.04-.04.06-.08.08-.13,5.17-9.61,8.79-20.03,10.7-30.97,2.19-12.51,2.07-25.14-.28-37.39-9.42-16.14-11.25-28.62-9.05-38.22,5.37-23.69,35.14-29.79,35.14-29.79-2.95,17.02,6.82,20.99,3.27,44.9-1.94,13.12-12.36,20.23-19.76,23.69,2.14,12.61,2.12,25.57-.12,38.41-1.06,6.09-2.62,12.01-4.63,17.75,16.71-26.92,45.56-16.48,45.76-16.36Z"/>
  </g>
</svg>